<?xml version="1.0" encoding="UTF-8" standalone="no"?>
<!-- Created with Inkscape (http://www.inkscape.org/) -->

<svg
   width="135.186mm"
   height="135.18556mm"
   viewBox="0 0 135.186 135.18556"
   version="1.1"
   id="svg5"
   inkscape:version="1.1 (c68e22c387, 2021-05-23)"
   sodipodi:docname="appicon.svg"
   inkscape:export-filename="H:\svn\c\trunk\LaserCalibrationTool\docs\assets\appicon.png"
   inkscape:export-xdpi="96"
   inkscape:export-ydpi="96"
   xmlns:inkscape="http://www.inkscape.org/namespaces/inkscape"
   xmlns:sodipodi="http://sodipodi.sourceforge.net/DTD/sodipodi-0.dtd"
   xmlns="http://www.w3.org/2000/svg"
   xmlns:svg="http://www.w3.org/2000/svg">
  <sodipodi:namedview
     id="namedview7"
     pagecolor="#ffffff"
     bordercolor="#666666"
     borderopacity="1.0"
     inkscape:pageshadow="2"
     inkscape:pageopacity="0.0"
     inkscape:pagecheckerboard="0"
     inkscape:document-units="mm"
     showgrid="false"
     inkscape:snap-intersection-paths="false"
     inkscape:zoom="0.69397447"
     inkscape:cx="74.93071"
     inkscape:cy="196.69311"
     inkscape:window-width="1680"
     inkscape:window-height="1003"
     inkscape:window-x="-4"
     inkscape:window-y="-4"
     inkscape:window-maximized="1"
     inkscape:current-layer="layer1"
     width="135.186mm" />
  <defs
     id="defs2">
    <inkscape:path-effect
       effect="fill_between_many"
       method="originald"
       linkedpaths="#rect849,0,1"
       id="path-effect3147"
       is_visible="true"
       lpeversion="0"
       join="true"
       close="true"
       autoreverse="true"
       applied="false" />
    <inkscape:path-effect
       effect="fill_between_many"
       method="originald"
       linkedpaths="#rect849,0,1"
       id="path-effect3354"
       is_visible="true"
       lpeversion="0"
       join="true"
       close="true"
       autoreverse="true"
       applied="false" />
  </defs>
  <g
     inkscape:label="Layer 1"
     inkscape:groupmode="layer"
     id="layer1"
     transform="translate(-34.77152,-8.1757092)">
    <rect
       style="fill:#c8ab37;fill-opacity:1;stroke:none;stroke-width:4.99999;stroke-linecap:round;stroke-linejoin:round;stroke-miterlimit:4;stroke-dasharray:none;stroke-opacity:1"
       id="rect3460"
       width="23.2575"
       height="83.434425"
       x="41.161057"
       y="26.675709" />
    <circle
       style="fill:#6244ff;fill-opacity:1;stroke:none;stroke-width:4.99999;stroke-linecap:round;stroke-linejoin:round;stroke-miterlimit:4;stroke-dasharray:none;stroke-opacity:1"
       id="path538914"
       cx="124.88805"
       cy="129.91167"
       r="2.5" />
    <path
       style="fill:#005050;fill-opacity:1;fill-rule:evenodd;stroke:none;stroke-width:0.264583px;stroke-linecap:butt;stroke-linejoin:miter;stroke-opacity:1"
       d="m 117.2236,68.848709 9.64558,-36.7976 21.09248,-0.1668 -0.0238,9.591654 -1.22789,5.024041 -13.39344,22.448705 z"
       id="path536521"
       sodipodi:nodetypes="ccccccc" />
    <path
       style="fill:#008080;fill-opacity:1;fill-rule:evenodd;stroke:none;stroke-width:0.264583px;stroke-linecap:butt;stroke-linejoin:miter;stroke-opacity:1"
       d="m 102.77578,31.521358 -1.57269,10.983657 15.73457,26.944839 7.44003,-0.0011 16.55909,-27.948917 V 31.237709 Z"
       id="path535980"
       sodipodi:nodetypes="ccccccc" />
    <rect
       style="fill:#008080;stroke:none;stroke-width:4.99999;stroke-linecap:round;stroke-linejoin:round;stroke-miterlimit:4;stroke-dasharray:none;stroke-opacity:1"
       id="rect535389"
       width="68.088264"
       height="15.524646"
       x="90.937607"
       y="12.680277" />
    <rect
       style="fill:#005050;fill-opacity:1;stroke:none;stroke-width:4.99999;stroke-linecap:round;stroke-linejoin:round;stroke-miterlimit:4;stroke-dasharray:none;stroke-opacity:1"
       id="rect535493"
       width="8.9088926"
       height="15.222776"
       x="149.51042"
       y="12.779952" />
    <path
       id="path532193"
       style="color:#000000;fill:#000000;fill-rule:evenodd;stroke-width:1;stroke-linecap:round;stroke-linejoin:round;-inkscape-stroke:none"
       d="m 89.323495,8.1757283 c -1.38457,-0.00536 -2.509856,1.1155249 -2.509925,2.5001057 v 19.253605 c 8e-5,1.380738 1.119368,2.500026 2.500106,2.500106 h 8.509558 v 11.670088 c 0.0013,0.125685 0.01193,0.251097 0.03204,0.375171 0.0054,0.03631 0.01162,0.07249 0.0186,0.108522 0.0226,0.119247 0.05387,0.236691 0.09354,0.351398 0.0098,0.02445 0.01995,0.04874 0.03049,0.07286 0.03704,0.09485 0.07984,0.187354 0.128158,0.276987 0.0095,0.02114 0.01934,0.04217 0.02946,0.06305 l 15.456938,26.849522 c 0.4462,0.774496 1.27192,1.251881 2.16576,1.252122 h 6.68383 v 11.476302 c -6e-5,1.380794 1.11931,2.500161 2.5001,2.500103 1.3808,5.8e-5 2.50017,-1.119309 2.50011,-2.500103 V 73.449264 h 6.50554 c 0.89053,5.29e-4 1.7141,-0.472702 2.16215,-1.242304 l 15.68173,-26.949259 c 0.009,-0.01815 0.0174,-0.03641 0.0258,-0.05478 0.042,-0.07821 0.0797,-0.158588 0.11317,-0.24081 0.0207,-0.04626 0.04,-0.09313 0.0579,-0.14056 0.0305,-0.09132 0.0557,-0.184317 0.0754,-0.278538 0.0114,-0.04227 0.0218,-0.08483 0.031,-0.12764 0.0238,-0.137229 0.0361,-0.276204 0.0367,-0.415478 v -11.57035 h 8.36332 c 1.38053,-2.65e-4 2.49951,-1.119571 2.49959,-2.500106 V 10.961088 c -7e-5,-1.3769114 -1.11339,-2.4946178 -2.49029,-2.5001057 z m 2.490287,5.0100297 3.292822,0.01344 v 4.211112 c -5.8e-5,1.380795 1.119312,2.500165 2.500106,2.500106 1.380794,5.9e-5 2.50016,-1.119311 2.50011,-2.500106 v -4.191475 l 4.26537,0.01705 v 4.174422 c -6e-5,1.380794 1.11931,2.500164 2.5001,2.500106 1.3808,5.8e-5 2.50017,-1.119312 2.50011,-2.500106 v -4.154268 l 4.02921,0.01602 v 4.175455 c 2.3e-4,1.380593 1.11951,2.499648 2.50011,2.499589 1.38039,-2.26e-4 2.49936,-1.119197 2.49959,-2.499589 v -4.155302 l 4.02972,0.01602 v 4.174422 c 2.3e-4,1.380391 1.1192,2.499362 2.49959,2.49959 1.3806,5.8e-5 2.49988,-1.118997 2.50011,-2.49959 v -4.154269 l 3.99614,0.01602 v 4.174939 c -6e-5,1.380793 1.11931,2.500162 2.5001,2.500105 1.3808,5.9e-5 2.50017,-1.119311 2.50011,-2.500105 v -4.154786 l 4.15427,0.01654 v 4.175456 c -6e-5,1.380592 1.11899,2.499878 2.49959,2.500106 1.38079,5.9e-5 2.50016,-1.119312 2.5001,-2.500106 v -4.155302 l 3.96307,0.01602 v 4.174422 c -6e-5,1.380793 1.11931,2.500163 2.5001,2.500105 1.3808,5.9e-5 2.50017,-1.119311 2.50011,-2.500105 v -4.15427 l 3.47059,0.01395 V 27.429851 H 91.813782 Z m 55.337708,19.245853 v 9.068181 h -24.85946 c -1.3808,-5.8e-5 -2.50017,1.119312 -2.50011,2.500106 -6e-5,1.380794 1.11931,2.500165 2.50011,2.500106 h 23.01202 l -12.77389,21.949048 c -5.071,-0.0069 -10.70842,-0.0016 -15.30656,0 L 104.64711,46.599739 h 6.73292 c 1.38079,5.8e-5 2.50016,-1.119312 2.50011,-2.500106 5e-5,-1.380794 -1.11932,-2.500164 -2.50011,-2.500106 h -8.55659 v -9.125024 z m -22.28495,62.781182 c -1.38079,-5.8e-5 -2.50016,1.119309 -2.5001,2.500104 v 20.953243 c -6e-5,1.38079 1.11931,2.50016 2.5001,2.50011 1.3806,-2.3e-4 2.49965,-1.11952 2.49959,-2.50011 V 97.712897 c 6e-5,-1.380594 -1.11899,-2.499876 -2.49959,-2.500104 z m 15.90859,4.473628 c -0.21846,3.2e-5 -0.43597,0.0287 -0.64699,0.08527 -0.64051,0.171915 -1.18648,0.591289 -1.51773,1.165829 l -10.28516,17.81235 c -0.69137,1.19576 -0.28201,2.72562 0.91415,3.41633 1.19621,0.69067 2.72584,0.28037 3.41581,-0.91623 l 10.28517,-17.81235 c 0.69111,-1.19618 0.28101,-2.72616 -0.91571,-3.41633 -0.37992,-0.219318 -0.81086,-0.334806 -1.24954,-0.334864 z m -31.89779,0.185002 c -0.4785,-0.02281 -0.95347,0.09236 -1.36839,0.331757 -1.19568,0.68994 -1.60584,2.21841 -0.91623,3.41427 l 10.52753,18.23609 c 0.69068,1.19586 2.22015,1.60518 3.41581,0.91416 1.19492,-0.69064 1.60412,-2.21895 0.91415,-3.41426 l -10.527,-18.2361 c -0.42565,-0.73625 -1.19639,-1.205621 -2.04587,-1.245917 z m 43.67744,11.277347 c -0.47833,-0.0227 -0.95311,0.0924 -1.36788,0.33176 l -17.94361,10.35906 c -1.19567,0.68993 -1.60583,2.21841 -0.91622,3.41426 0.68999,1.19691 2.22001,1.60725 3.41633,0.91622 l 17.94309,-10.35957 c 1.19585,-0.69069 1.60517,-2.22015 0.91415,-3.41581 -0.42565,-0.73625 -1.19638,-1.20563 -2.04586,-1.24592 z m -55.043672,0.2527 c -0.218265,-1e-4 -0.435605,0.0284 -0.646472,0.0847 -0.640252,0.17154 -1.186172,0.59032 -1.517737,1.16427 -0.691018,1.19566 -0.281697,2.72512 0.914156,3.41581 l 18.460885,10.65826 c 1.19575,0.68927 2.72383,0.27914 3.41375,-0.91622 0.6897,-1.19507 0.28078,-2.72294 -0.91364,-3.41375 L 98.760645,111.73633 c -0.379918,-0.21932 -0.810858,-0.3348 -1.249537,-0.33486 z m -4.574397,16.01246 c -1.380794,-6e-5 -2.500164,1.11931 -2.500106,2.5001 -5.8e-5,1.3808 1.119312,2.50017 2.500106,2.50011 h 20.873139 c 1.3806,-2.3e-4 2.49965,-1.11951 2.49959,-2.50011 6e-5,-1.38059 -1.11899,-2.49988 -2.49959,-2.5001 z m 42.413949,0 c -1.3808,-6e-5 -2.50017,1.11931 -2.50011,2.5001 -6e-5,1.3808 1.11931,2.50017 2.50011,2.50011 h 20.87314 c 1.3808,6e-5 2.50017,-1.11931 2.50011,-2.50011 6e-5,-1.38079 -1.11931,-2.50016 -2.50011,-2.5001 z m -97.788864,10.94765 c -1.380593,-6e-5 -2.499878,1.11899 -2.500106,2.49959 -5.8e-5,1.38079 1.119312,2.50016 2.500106,2.5001 H 167.16732 c 1.38059,-2.2e-4 2.49965,-1.11951 2.49959,-2.5001 -2.3e-4,-1.38039 -1.1192,-2.49936 -2.49959,-2.49959 z"
       sodipodi:nodetypes="cccccccccccccccccccccccccccccccccccccccccccccccccccccccccccccccccccccccccccccccccccccccccccccccccccccccccccccccccsccccccscccccccccccccccccccccccccccccc" />
    <path
       id="rect849"
       style="color:#000000;fill:#000000;stroke-width:1;stroke-linecap:round;stroke-linejoin:round;-inkscape-stroke:none"
       d="m 41.161059,24.175709 a 2.50025,2.50025 0 0 0 -2.499589,2.499589 v 82.732412 a 2.50025,2.50025 0 0 0 2.499589,2.50011 h 22.494233 a 2.50025,2.50025 0 0 0 2.500107,-2.50011 V 26.675298 a 2.50025,2.50025 0 0 0 -2.500107,-2.499589 z m 2.500106,4.999695 h 17.494022 v 5.674072 h -5.124751 a 2.5,2.5 0 0 0 -2.500106,2.49959 2.5,2.5 0 0 0 2.500106,2.500104 h 5.124751 v 7.111195 h -5.124751 a 2.5,2.5 0 0 0 -2.500106,2.500106 2.5,2.5 0 0 0 2.500106,2.500107 h 5.124751 v 7.109642 h -5.124751 a 2.5,2.5 0 0 0 -2.500106,2.499588 2.5,2.5 0 0 0 2.500106,2.500106 h 5.124751 v 7.109645 h -5.124751 a 2.5,2.5 0 0 0 -2.500106,2.499587 2.5,2.5 0 0 0 2.500106,2.500106 h 5.124751 v 7.109643 h -5.124751 a 2.5,2.5 0 0 0 -2.500106,2.49959 2.5,2.5 0 0 0 2.500106,2.500106 h 5.124751 v 7.109643 h -5.124751 a 2.5,2.5 0 0 0 -2.500106,2.500106 2.5,2.5 0 0 0 2.500106,2.49959 h 5.124751 v 6.5102 H 43.661165 Z" />
  </g>
</svg>
